<svg width="73" height="35" viewBox="0 0 73 35" fill="none" xmlns="http://www.w3.org/2000/svg">
<path d="M64.8879 29.0726C66.6067 29.0726 68 27.6861 68 25.9757C68 24.2654 66.6067 22.8789 64.8879 22.8789C63.1691 22.8789 61.7758 24.2654 61.7758 25.9757C61.7758 27.6861 63.1691 29.0726 64.8879 29.0726Z" stroke="#519273" stroke-width="10" stroke-miterlimit="10"/>
<path d="M24.47 19.8139C24.3222 19.8806 24.2323 19.7851 24.1348 19.7502C23.8652 19.6547 23.6002 19.541 23.3412 19.4197C23.0822 19.297 22.8263 19.1636 22.578 19.0211C22.412 18.9256 22.2627 18.8013 22.0982 18.6997C21.7174 18.4617 21.4462 18.1191 21.1888 17.7644C21.0014 17.5052 20.8445 17.2248 20.6754 16.952C20.4363 16.5639 20.258 16.147 20.1103 15.7196C20.028 15.4831 19.9899 15.23 19.9366 14.9829C19.8924 14.7737 19.8574 14.5645 19.8208 14.3538C19.8102 14.2962 19.8071 14.2386 19.801 14.181C19.7736 13.9051 19.7477 13.6277 19.7203 13.3518C19.7188 13.3291 19.7096 13.3079 19.699 13.2669C19.5878 13.4185 19.5604 13.5837 19.5162 13.7384C19.4324 14.0309 19.3608 14.3295 19.309 14.6297C19.2633 14.8965 19.2496 15.1693 19.2298 15.4407C19.2009 15.853 19.242 16.2622 19.3044 16.6685C19.341 16.911 19.4263 17.146 19.4949 17.3825C19.5984 17.7432 19.7416 18.0858 19.9351 18.4102C20.1133 18.7103 20.3083 18.9983 20.5398 19.2591C20.5901 19.3151 20.6587 19.3652 20.6526 19.4682C20.6145 19.441 20.5703 19.4182 20.5383 19.3864C20.2854 19.1242 19.9991 18.8907 19.8026 18.58C19.6472 18.3344 19.4903 18.0858 19.3608 17.8251C19.1018 17.3051 18.9876 16.7443 18.8977 16.1728C18.82 15.6756 18.8292 15.1784 18.8444 14.6827C18.8551 14.3538 18.9084 14.0264 18.9526 13.699C18.9861 13.4473 19.0287 13.1957 19.082 12.9471C19.1323 12.7121 19.2009 12.4817 19.2679 12.2513C19.3395 12.0058 19.4187 11.7617 19.4964 11.5161C19.5329 11.4009 19.5619 11.2827 19.6167 11.1751C19.7538 10.9037 19.7294 10.6385 19.6182 10.3702C19.5345 10.1701 19.44 9.97453 19.373 9.76989C19.3242 9.62437 19.306 9.46975 19.2892 9.31665C19.2816 9.25147 19.3151 9.18326 19.3273 9.11656C19.3395 9.05138 19.3486 8.9862 19.3578 8.92102C19.344 8.91647 19.3288 8.91192 19.3151 8.90889C19.2846 8.99075 19.2405 9.07109 19.2283 9.15597C19.1856 9.43034 19.2268 9.69258 19.3349 9.95027C19.4141 10.1382 19.5025 10.3247 19.536 10.5324C19.568 10.7309 19.5375 10.9144 19.4461 11.0841C19.3837 11.1978 19.2999 11.307 19.2039 11.3918C18.8764 11.6829 18.491 11.886 18.0949 12.0664C17.9731 12.1225 17.8268 12.1422 17.6913 12.1467C17.3424 12.1558 16.9921 12.1604 16.6447 12.1407C16.4345 12.1285 16.2289 12.0664 16.0202 12.03C15.8968 12.0073 15.7734 11.9982 15.65 11.9572C15.5297 11.9178 15.4139 11.8799 15.3073 11.8148C14.9051 11.5707 14.5152 11.3115 14.1846 10.972C14.011 10.7946 13.8403 10.6157 13.6591 10.4475C13.4412 10.2459 13.1975 10.0761 12.9431 9.91996C12.7908 9.82597 12.6506 9.7138 12.576 9.541C12.509 9.3879 12.5273 9.29391 12.6644 9.20296C12.7847 9.12262 12.9096 9.04683 13.0421 8.99075C13.359 8.85432 13.688 8.74821 14.0262 8.66787C14.2318 8.61936 14.4344 8.56631 14.6431 8.5269C14.9204 8.47687 15.1885 8.37834 15.4672 8.345C15.8115 8.30407 16.1558 8.23131 16.5092 8.30558C16.7285 8.35258 16.9585 8.35864 17.1794 8.39805C17.3135 8.42079 17.4414 8.47081 17.5724 8.51174C17.6532 8.53599 17.7324 8.56934 17.8146 8.59056C18.0949 8.66181 18.3417 8.81036 18.6022 8.92556C18.8292 9.02713 18.9891 8.99832 19.146 8.81491C19.3273 8.60269 19.5086 8.39047 19.6853 8.17522C19.7538 8.09033 19.8193 8.0009 19.8711 7.9054C19.9808 7.7038 19.9427 7.50825 19.8361 7.31422C19.7401 7.1399 19.603 7.00196 19.4598 6.87008C19.405 6.82006 19.3486 6.77155 19.2983 6.71698C19.1369 6.53963 19.2085 6.27435 19.4613 6.20766C19.6426 6.16067 19.8254 6.14702 20.0113 6.13035C20.2504 6.10761 20.488 6.06365 20.7242 6.01363C21.1187 5.93026 21.4462 5.73472 21.7691 5.5134C21.9809 5.36788 22.1972 5.22994 22.4181 5.09958C22.6496 4.96467 22.9071 4.901 23.1706 4.86462C23.3229 4.8434 23.4615 4.88736 23.5971 4.94496C23.5971 4.95709 23.5971 4.96921 23.5986 4.98134C23.5453 4.98589 23.492 4.99347 23.4387 4.99195C22.9467 4.97679 22.5338 5.1496 22.1774 5.48763C21.9154 5.73471 21.6321 5.95906 21.3594 6.19402C21.3289 6.21978 21.2984 6.24707 21.2649 6.27132C21.0745 6.40927 20.9907 6.59117 21.0258 6.82612C21.0486 6.97467 20.9816 7.10807 20.9389 7.24449C20.8963 7.38395 20.8201 7.5128 20.8217 7.66741C20.8232 7.96149 20.9313 8.19796 21.1629 8.38289C21.3137 8.50416 21.463 8.62543 21.5818 8.78459C21.8331 9.12262 21.8499 9.47582 21.6656 9.8381C21.5879 9.98969 21.4828 10.1322 21.3685 10.258C21.1903 10.455 21.0578 10.6779 20.9938 10.9295C20.9313 11.1766 20.945 11.4358 20.9953 11.6874C21.0136 11.7769 21.0364 11.8678 21.0669 11.9542C21.1461 12.1695 21.3 12.3211 21.4934 12.4363C21.7539 12.5924 22.0373 12.6909 22.3358 12.747C22.5034 12.7788 22.6679 12.8289 22.8355 12.8713C22.8461 12.8743 22.8583 12.8759 22.8705 12.8774C23.0761 12.9031 23.2833 12.9244 23.4874 12.9577C23.6855 12.9911 23.8789 13.0502 24.077 13.0759C24.4593 13.126 24.7685 13.3291 25.0717 13.5368C25.5287 13.849 25.8699 14.2598 26.0512 14.7843C26.1761 15.1466 26.1776 15.524 26.1289 15.9C26.1167 16.0015 26.0832 16.1031 26.0405 16.1971C25.9582 16.379 25.7892 16.4472 25.6109 16.5048C25.3504 16.5881 25.0823 16.5821 24.8173 16.5654C24.4014 16.5396 24.0891 16.7094 23.8271 17.0111C23.6916 17.1672 23.5606 17.3233 23.4859 17.5189C23.3839 17.7811 23.3549 18.0403 23.4219 18.3253C23.5484 18.8771 23.9109 19.2606 24.2872 19.6411C24.3405 19.6956 24.3984 19.7487 24.47 19.8139ZM18.7469 9.2833C18.6464 9.47581 18.5458 9.52584 18.3326 9.47278C18.2579 9.45308 18.1863 9.41367 18.1163 9.3788C17.8177 9.22873 17.5085 9.1105 17.1794 9.04683C16.9235 8.99681 16.663 8.96043 16.4041 8.92556C16.1999 8.89828 15.9958 8.90586 15.7917 8.94679C15.9852 8.99075 16.1771 9.02713 16.3721 9.04077C16.6646 9.06351 16.9433 9.13475 17.2129 9.23934C17.4201 9.31968 17.6212 9.4167 17.8177 9.52129C18.0569 9.65014 18.3082 9.64862 18.5611 9.61376C18.6494 9.60163 18.7332 9.54706 18.7759 9.45611C18.8063 9.39396 18.8002 9.33333 18.7469 9.2833Z" fill="#4F9374"/>
<path d="M24.24 4.87067C24.4639 4.78275 24.6893 4.70241 24.9331 4.68271C24.9971 4.67816 25.0595 4.65846 25.122 4.65239C25.515 4.6145 25.8943 4.63117 26.2309 4.88735C26.4214 5.03135 26.6407 5.13443 26.8707 5.21325C27.18 5.31785 27.4846 5.43457 27.7878 5.55583C28.2006 5.72106 28.4717 6.01968 28.6286 6.43502C28.7535 6.76699 28.8586 7.10654 29.0506 7.41123C29.1648 7.59313 29.2989 7.75532 29.503 7.84324C29.7102 7.93419 29.9158 7.93722 30.1108 7.80838C30.4246 7.59919 30.7445 7.40213 31.0979 7.26419C31.4269 7.13686 31.7682 7.05955 32.1185 7.00346C32.5298 6.93828 32.9411 6.92161 33.3524 6.94889C33.6342 6.96708 33.9145 7.02469 34.1948 7.06713C34.4873 7.11109 34.7691 7.19749 35.0448 7.29602C35.1697 7.3415 35.2961 7.38697 35.4089 7.45367C35.4896 7.50066 35.552 7.581 35.616 7.65376C35.6907 7.73865 35.68 7.83415 35.6313 7.92813C35.5612 8.06607 35.4485 8.16763 35.322 8.24797C35.0615 8.41168 34.8925 8.65119 34.7264 8.89978C34.4248 9.34696 34.1536 9.82142 33.7271 10.167C33.392 10.4384 33.0249 10.6566 32.6121 10.8022C32.1551 10.9644 31.6874 10.9659 31.2182 10.9219C31.0187 10.9022 30.8511 10.8097 30.7765 10.5915C30.7186 10.4202 30.6409 10.2519 30.4992 10.1261C30.4718 10.1018 30.4368 10.0837 30.3759 10.0412C30.4337 10.1882 30.4764 10.3019 30.5251 10.4126C30.6135 10.6142 30.5845 10.8067 30.5373 11.0174C30.4703 11.316 30.2707 11.5343 30.1352 11.792C30.0011 12.0467 29.928 12.3119 29.8991 12.5984C29.8625 12.9653 29.8853 13.3291 29.9295 13.6883C29.9905 14.184 30.0103 14.6797 30.0133 15.1769C30.0148 15.5589 30.1428 15.8984 30.3728 16.2031C30.4033 16.244 30.4246 16.2925 30.4703 16.3744C30.4002 16.3562 30.3682 16.3577 30.3515 16.3426C30.1458 16.1652 29.9463 15.9833 29.8198 15.7362C29.7467 15.5953 29.6949 15.4513 29.6949 15.2921C29.6934 15.1526 29.6843 15.0132 29.6965 14.8752C29.7254 14.5554 29.5944 14.2932 29.4238 14.04C29.3111 13.8733 29.1877 13.7126 29.0887 13.5383C28.9196 13.2412 28.8449 12.9122 28.9059 12.5757C28.979 12.174 29.1267 11.792 29.3766 11.4616C29.5137 11.2797 29.6203 11.0856 29.6751 10.8658C29.6873 10.8158 29.6934 10.7628 29.6934 10.7112C29.6919 10.4384 29.6919 10.167 29.6843 9.89569C29.6812 9.75927 29.6965 9.63951 29.8046 9.53492C29.9036 9.43942 29.8991 9.37576 29.8229 9.25904C29.7467 9.14383 29.669 9.03015 29.5898 8.91797C29.4741 8.75426 29.337 8.62087 29.1542 8.51779C28.8861 8.36621 28.7276 8.11458 28.6225 7.82505C28.5448 7.6098 28.4565 7.39455 28.3483 7.19294C28.1792 6.87765 27.9721 6.58054 27.8121 6.2607C27.6705 5.97421 27.442 5.79685 27.1708 5.66649C26.9164 5.54522 26.6468 5.45276 26.3894 5.33755C26.2705 5.2845 26.1548 5.21477 26.0527 5.13443C25.8958 5.01165 25.7298 4.94495 25.5302 4.9116C25.2652 4.86764 25.0016 4.84642 24.7335 4.854C24.6178 4.85703 24.5035 4.84642 24.3938 4.90857C24.3573 4.92979 24.2979 4.9116 24.2476 4.9116C24.2445 4.89644 24.243 4.8828 24.24 4.87067ZM29.6218 8.15247C29.7132 8.26919 29.7939 8.37682 29.8808 8.4799C29.9585 8.57388 30.062 8.60874 30.1854 8.60874C30.4627 8.60723 30.7308 8.55417 30.9974 8.47838C31.3081 8.39046 31.564 8.23584 31.759 7.9736C31.8809 7.80989 32.0286 7.67195 32.2251 7.58252C32.5359 7.44154 32.8573 7.3415 33.2122 7.26116C32.8771 7.24448 32.5938 7.33695 32.3028 7.43851C31.9768 7.55371 31.7179 7.74926 31.4787 7.97967C31.3416 8.11154 31.1847 8.19946 31.008 8.2601C30.8983 8.29648 30.7887 8.32983 30.6775 8.36014C30.5114 8.40562 30.3439 8.4132 30.1839 8.33741C30.1062 8.30103 30.0346 8.251 29.9554 8.21765C29.8579 8.17673 29.7665 8.10093 29.6218 8.15247ZM30.0453 10.884C29.8107 10.9325 29.6614 11.1493 29.7147 11.3585C29.7696 11.3524 29.8244 11.3479 29.8762 11.3418C29.8655 11.2827 29.8549 11.2311 29.8412 11.166C29.8975 11.1705 29.9326 11.1735 30.0042 11.1796C29.9646 11.1099 29.9402 11.069 29.9143 11.025C29.9554 10.981 29.9965 10.9371 30.0453 10.884Z" fill="#4F9374"/>
<path d="M31.8489 18.0919C31.8717 18.1328 31.8885 18.151 31.89 18.1707C31.9159 18.5012 31.9296 18.8286 31.8321 19.153C31.7346 19.4759 31.5153 19.7063 31.2548 19.8988C31.005 20.0837 30.7155 20.1641 30.4093 20.2232C30.0666 20.2884 29.7254 20.2747 29.3842 20.2762C29.0216 20.2778 28.6682 20.3293 28.3133 20.4005C28.0178 20.4597 27.7207 20.5203 27.4145 20.4854C27.1556 20.4551 26.8951 20.4278 26.6346 20.4051C26.397 20.3839 26.1578 20.3763 25.9217 20.349C25.713 20.3247 25.5165 20.258 25.3581 20.1095C25.352 20.1049 25.3565 20.0898 25.355 20.0655C25.7831 20.2414 26.2218 20.1823 26.659 20.1413C26.758 20.1322 26.857 20.1307 26.9545 20.1201C27.1769 20.0959 27.2911 19.8851 27.1784 19.6942C27.1205 19.5971 27.0474 19.5062 26.9712 19.4228C26.7595 19.1863 26.6148 18.9241 26.6422 18.5952C26.6711 18.2526 26.8448 17.9979 27.1449 17.7827C27.1449 17.8554 27.151 17.8933 27.1434 17.9297C27.1236 18.0252 27.1022 18.1192 27.0763 18.2132C26.9804 18.5482 27.2119 18.9893 27.5455 19.1651C27.7344 19.2652 27.9385 19.347 28.1579 19.3152C28.4336 19.2743 28.6743 19.1773 28.7885 18.8817C28.8449 18.7377 28.7779 18.6376 28.7002 18.5588C28.6057 18.4633 28.4808 18.3905 28.359 18.3299C28.1762 18.2405 27.9797 18.1813 27.7984 18.0904C27.7161 18.0495 27.6384 17.9752 27.5897 17.8964C27.4648 17.7023 27.5714 17.5053 27.7314 17.384C27.8151 17.3219 27.9233 17.2673 28.0254 17.2582C28.2371 17.24 28.4534 17.2506 28.6667 17.2567C28.7337 17.2582 28.8007 17.284 28.8662 17.3006C29.0688 17.3476 29.2745 17.3855 29.4847 17.3688C29.5928 17.3613 29.7056 17.381 29.8061 17.3158C29.8244 17.3037 29.8518 17.3052 29.8747 17.3052C30.1062 17.2991 30.324 17.2233 30.5495 17.1809C30.81 17.1324 31.0796 17.1127 31.3446 17.1021C31.4482 17.0975 31.564 17.1384 31.6569 17.1885C31.8565 17.2946 31.858 17.522 31.663 17.669C31.5533 17.7508 31.433 17.8206 31.3127 17.8873C31.0248 18.0495 30.7765 18.2556 30.6043 18.5406C30.4322 18.8256 30.548 19.0287 30.7445 19.1409C30.8816 19.2197 31.0369 19.2045 31.1817 19.1484C31.4787 19.0348 31.6402 18.7983 31.7331 18.5088C31.7727 18.3784 31.8047 18.245 31.8489 18.0919Z" fill="#4F9374"/>
<path d="M21.9794 10.9326C21.8209 10.9326 21.6899 10.9326 21.5544 10.9326C21.696 10.5687 22.415 10.4323 22.8309 10.5778C23.4905 10.8098 23.8058 11.5707 23.623 12.0528C23.5651 11.9254 23.5164 11.7996 23.4539 11.6799C23.396 11.5677 23.3656 11.5616 23.2803 11.6556C23.1371 11.8117 22.9543 11.8921 22.7532 11.9178C22.6557 11.93 22.5399 11.9057 22.4501 11.8633C22.2764 11.7784 22.0936 11.6935 22.0281 11.4843C22.0098 11.4252 21.9855 11.3661 21.9809 11.3054C21.9733 11.1902 21.9794 11.075 21.9794 10.9326ZM22.9985 11.2918C22.9787 11.3085 22.9512 11.3221 22.9391 11.3449C22.8416 11.5359 22.6877 11.6238 22.4744 11.5965C22.3952 11.5874 22.3175 11.5662 22.2231 11.5465C22.3678 11.7087 22.5552 11.7602 22.7151 11.6965C22.8964 11.6223 22.9939 11.4798 22.9924 11.2873C23.0122 11.266 23.0335 11.2448 23.0533 11.2221C23.0426 11.216 23.0335 11.2084 23.0228 11.2024C23.0152 11.2327 23.0061 11.263 22.9985 11.2918ZM22.3602 11.025C22.3526 10.9371 22.3145 10.8931 22.2612 10.9068C22.2231 10.9174 22.1881 10.9689 22.1744 11.0099C22.1698 11.0235 22.2307 11.0826 22.2612 11.0826C22.2962 11.0841 22.3328 11.0432 22.3602 11.025Z" fill="#4F9374"/>
<path d="M30.4642 20.3444C30.5541 20.5779 30.481 20.7249 30.3393 20.8522C30.1763 20.9978 29.9752 21.0705 29.7772 21.1509C29.5731 21.2327 29.3598 21.2403 29.1435 21.2373C28.8297 21.2327 28.5159 21.2221 28.2021 21.2266C28.0467 21.2297 27.8929 21.263 27.7375 21.2767C27.4831 21.2979 27.2287 21.3115 26.9743 21.26C26.7519 21.216 26.5295 21.1797 26.3056 21.1478C25.9827 21.1023 25.7115 20.9689 25.5104 20.7082C25.4982 20.6915 25.4891 20.6734 25.4602 20.6218C25.5211 20.6446 25.5531 20.6506 25.5759 20.6658C25.8684 20.8659 26.1929 20.9705 26.5448 20.9871C27.0109 21.0084 27.4709 20.9644 27.9279 20.8644C28.1077 20.8249 28.2981 20.834 28.4839 20.8325C28.8556 20.8295 29.2288 20.8507 29.6005 20.8325C29.8701 20.8189 30.1352 20.7476 30.3241 20.5263C30.3682 20.4778 30.4063 20.4217 30.4642 20.3444Z" fill="#4F9374"/>
<path d="M23.7586 10.6884C23.7205 10.5854 23.687 10.4793 23.6428 10.3792C23.5758 10.2261 23.4813 10.0897 23.3443 9.98812C23.1934 9.87595 23.0381 9.76681 22.8903 9.6607C23.0183 9.61068 23.2315 9.67131 23.425 9.81228C23.6992 10.0124 23.7555 10.3216 23.7586 10.6884Z" fill="#4F9374"/>
<path d="M30.4505 17.055C29.9523 17.2187 29.4497 17.3142 28.9104 17.1156C28.9591 17.102 28.9911 17.0838 29.0231 17.0838C29.18 17.0884 29.3354 17.1035 29.4923 17.1035C29.7284 17.1035 29.966 17.1156 30.1976 17.0323C30.2738 17.005 30.3652 17.0156 30.4489 17.008C30.4489 17.0232 30.4489 17.0383 30.4505 17.055Z" fill="#4F9374"/>
<path d="M28.7764 17.0687C28.7261 17.0717 28.6773 17.0747 28.592 17.0793C28.6865 17.0247 28.6865 17.0247 28.7764 17.0687Z" fill="#4F9374"/>
<path d="M64.8878 27.5295C65.7502 27.5295 66.4492 26.8339 66.4492 25.9758C66.4492 25.1177 65.7502 24.4221 64.8878 24.4221C64.0255 24.4221 63.3264 25.1177 63.3264 25.9758C63.3264 26.8339 64.0255 27.5295 64.8878 27.5295Z" fill="#4F9374"/>
<path d="M37.2018 20.3035C36.7159 20.3035 36.2528 20.2368 35.8141 20.1049C35.3753 19.9715 34.9991 19.6865 34.6853 19.25C34.8422 18.5011 35.0341 17.6932 35.2611 16.8276C35.4881 15.9621 35.7348 15.0723 36.0014 14.1598C36.268 13.2472 36.5376 12.3498 36.8133 11.4676C37.0875 10.5869 37.3495 9.76381 37.6009 8.99831C37.8522 8.23433 38.0792 7.56281 38.2833 6.98527C38.4875 6.40774 38.6444 5.97117 38.754 5.67407C38.8013 5.54977 38.8789 5.36635 38.9886 5.12382C39.0983 4.8828 39.2308 4.63572 39.3877 4.38712C39.5446 4.13701 39.7244 3.92327 39.9285 3.74289C40.1326 3.56402 40.352 3.47307 40.5866 3.47307C40.8059 3.47307 41.0253 3.55189 41.2446 3.70651C40.7587 4.82974 40.2682 6.0697 39.7746 7.4279C39.2811 8.78458 38.8058 10.1852 38.3519 11.6283C37.8964 13.0714 37.4821 14.4796 37.1058 15.853C36.7296 17.2263 36.4158 18.4738 36.1644 19.5971C36.3838 19.6289 36.5681 19.6517 36.7174 19.6668C36.8667 19.682 37.019 19.6896 37.1759 19.6896C38.1797 19.6896 39.147 19.4591 40.0808 18.9998C41.0131 18.539 41.8844 17.9084 42.6918 17.1035C43.4991 16.3001 44.209 15.38 44.8198 14.3417C45.4307 13.3048 45.906 12.2043 46.2426 11.0417C46.5793 9.87902 46.7483 8.72091 46.7483 7.56584C46.7483 6.30163 46.5442 5.26024 46.1375 4.44169C45.7293 3.62313 45.1656 3.01831 44.4436 2.62723C43.7215 2.23765 42.8837 2.04211 41.9271 2.04211C40.908 2.04211 39.991 2.24523 39.176 2.64996C38.361 3.05621 37.7182 3.60191 37.2475 4.28859C36.7768 4.97527 36.5422 5.74835 36.5422 6.60631C36.5422 6.79276 36.5544 6.95799 36.5772 7.09745C36.6001 7.23842 36.6275 7.36272 36.6595 7.47186C36.1416 7.47186 35.7775 7.34301 35.5658 7.08532C35.354 6.82763 35.2489 6.51991 35.2489 6.16065C35.2489 5.61495 35.4408 5.0647 35.8247 4.51142C36.2086 3.95814 36.7417 3.4473 37.4242 2.9789C38.1066 2.51051 38.8942 2.13306 39.7884 1.84353C40.6825 1.55552 41.63 1.41 42.6339 1.41C44.0445 1.41 45.1778 1.69498 46.0324 2.26494C46.887 2.8349 47.51 3.60343 47.9015 4.57054C48.293 5.53764 48.4895 6.62299 48.4895 7.82353C48.4895 9.18173 48.2777 10.4793 47.8543 11.7208C47.4308 12.9607 46.8474 14.1006 46.1025 15.1375C45.3576 16.1758 44.5076 17.0808 43.5509 17.8524C42.5943 18.6239 41.5706 19.2257 40.4815 19.6547C39.3923 20.0897 38.2986 20.3035 37.2018 20.3035Z" fill="#4F9374"/>
<path d="M51.1019 19.2969C50.1453 19.2969 49.4278 19.0362 48.9495 18.5132C48.4712 17.9903 48.232 17.3475 48.232 16.582C48.232 15.8802 48.4087 15.139 48.7606 14.3583C49.114 13.5776 49.5832 12.8455 50.1712 12.1588C50.7592 11.4721 51.4066 10.9143 52.1119 10.4853C52.8172 10.0563 53.5149 9.84109 54.2049 9.84109C54.5659 9.84109 54.898 9.93508 55.2042 10.1215C55.5104 10.308 55.6627 10.6915 55.6627 11.269C55.6627 11.8617 55.486 12.4195 55.1341 12.9425C54.7807 13.4655 54.3192 13.9293 53.7464 14.3356C53.1736 14.7418 52.5476 15.0723 51.8651 15.33C51.1827 15.5877 50.5048 15.7468 49.83 15.809C49.798 15.9651 49.7751 16.1137 49.7599 16.2531C49.7447 16.3941 49.7371 16.526 49.7371 16.6518C49.7371 16.8852 49.7645 17.1202 49.8193 17.3536C49.8742 17.5871 49.9717 17.8023 50.1133 17.9978C50.255 18.1934 50.4469 18.345 50.6891 18.4541C50.9313 18.5633 51.2345 18.6178 51.594 18.6178C52.2673 18.6178 52.9345 18.4268 53.5926 18.0448C54.2506 17.6628 54.863 17.1596 55.4266 16.5351C55.9918 15.9105 56.4686 15.2239 56.8616 14.475L57.1434 14.6857C56.7199 15.6225 56.1822 16.4335 55.5317 17.1202C54.8813 17.8068 54.176 18.3404 53.4143 18.7239C52.6572 19.1059 51.8849 19.2969 51.1019 19.2969ZM49.9488 15.3663C50.3723 15.2254 50.8506 15.0192 51.3838 14.7464C51.9169 14.4735 52.4303 14.1491 52.9238 13.7747C53.4174 13.4003 53.8256 12.9865 54.147 12.5347C54.4685 12.083 54.6299 11.6071 54.6299 11.1068C54.6299 10.9355 54.5979 10.8021 54.5355 10.7097C54.473 10.6157 54.339 10.5687 54.1364 10.5687C53.7601 10.5687 53.3595 10.7127 52.9375 11.0022C52.5141 11.2918 52.1058 11.6692 51.7143 12.1376C51.3228 12.606 50.9694 13.1199 50.6556 13.6822C50.3403 14.2416 50.1057 14.804 49.9488 15.3663Z" fill="#4F9374"/>
<path d="M58.3925 19.344C57.7177 19.344 57.2013 19.1484 56.8402 18.7588C56.4792 18.3693 56.2995 17.7917 56.2995 17.0262C56.2995 16.3396 56.4289 15.4937 56.6879 14.4872C56.9469 13.4807 57.2713 12.4469 57.6643 11.3858C57.5074 11.3539 57.3582 11.3267 57.218 11.3039C57.0764 11.2812 56.9438 11.2448 56.8189 11.1978V10.7764C56.9438 10.7916 57.0931 10.8082 57.2652 10.8234C57.4374 10.8386 57.6339 10.8552 57.8532 10.8704C58.1823 10.0276 58.5357 9.21206 58.9119 8.42534C59.2882 7.6371 59.6599 6.93527 60.0285 6.31832C60.3972 5.70289 60.749 5.21024 61.0872 4.8434C61.4239 4.47657 61.7102 4.29315 61.9464 4.29315C62.0713 4.29315 62.1855 4.3356 62.2876 4.422C62.3896 4.5084 62.4399 4.63725 62.4399 4.80854C62.4399 5.07381 62.2754 5.50734 61.9464 6.10762C61.6173 6.70789 61.2091 7.42185 60.7231 8.2495C60.2372 9.07715 59.7665 9.97301 59.3126 10.9416C59.4542 10.9416 59.5989 10.9416 59.7482 10.9416C59.8975 10.9416 60.0422 10.9416 60.1839 10.9416C60.7018 10.9416 61.2456 10.9341 61.8184 10.9189C62.3912 10.9037 62.967 10.8643 63.5474 10.8022V11.2236C62.6852 11.3176 61.9129 11.3873 61.2304 11.4343C60.548 11.4813 59.9402 11.504 59.407 11.504C59.3446 11.504 59.2851 11.504 59.2303 11.504C59.1755 11.504 59.1161 11.504 59.0536 11.504C58.6926 12.3317 58.3864 13.1821 58.1366 14.0552C57.8852 14.9298 57.7603 15.7787 57.7603 16.6063C57.7603 17.2779 57.8624 17.7569 58.0665 18.0464C58.2706 18.3344 58.6073 18.4799 59.078 18.4799C59.8929 18.4799 60.6927 18.1207 61.4772 17.4037C62.2617 16.6867 62.9502 15.7105 63.5474 14.4781L63.8535 14.7115C63.4773 15.5862 63.0035 16.3729 62.4308 17.0747C61.858 17.7766 61.2274 18.3299 60.5373 18.7361C59.8427 19.1408 59.1282 19.344 58.3925 19.344Z" fill="#4F9374"/>
<path d="M62.5907 25.0496C62.3363 24.7631 60.8877 24.4144 60.3027 24.2371C59.4436 23.9779 58.5311 23.749 57.5821 23.5504C55.6795 23.1533 53.623 22.8774 51.5132 22.7379C46.9037 22.4317 42.0566 22.8516 37.5826 23.2973C31.2746 23.9248 24.9377 24.7676 18.4575 24.6039C15.5678 24.5312 12.7101 24.2568 10.0458 23.796C7.56435 23.3655 5.16514 22.7409 3.78198 21.7966C2.1886 20.7097 2.15966 19.3364 3.00966 18.1191C3.1955 17.8539 3.41943 17.5947 3.67382 17.3385C3.64183 17.2657 3.62051 17.1884 3.61137 17.1066C3.57329 16.7564 3.73323 16.4214 3.8292 16.0834C3.96173 15.6165 3.97392 15.1254 4.00895 14.6433C4.31666 10.4338 6.49803 6.3562 5.84149 2.1846C5.74247 1.55098 5.49722 0.835504 4.88942 0.624802C4.42024 0.462607 3.88708 0.679372 3.54282 1.03408C3.19855 1.38879 3.00357 1.8587 2.82382 2.318C2.75679 2.4908 2.68824 2.67574 2.72633 2.85764C2.77507 3.08653 2.97463 3.24418 3.13305 3.4185C3.76827 4.12033 3.70581 5.33301 3.00052 5.96663C2.29523 6.59874 1.07506 6.53659 0.439845 5.83627C-0.196897 5.13443 -0.132918 3.92024 0.570849 3.28814C0.808485 3.0744 1.10096 2.92585 1.33859 2.71363C1.67067 2.41804 1.88089 2.01635 2.13376 1.65254C3.02642 0.365593 4.86048 -0.483279 6.19337 0.344371C7.19114 0.964351 7.52017 2.25585 7.57806 3.42305C7.75781 7.15505 6.05475 10.7067 5.52464 14.4038C5.4698 14.7873 5.47742 15.2633 5.71505 15.5286C5.77599 15.5983 5.85367 15.6529 5.94812 15.6877C6.02581 15.7165 6.10502 15.7271 6.18575 15.7226C6.38988 15.715 6.59705 15.621 6.77984 15.5164C7.61766 15.0268 8.26507 14.2735 8.84088 13.4958C10.9613 10.6309 12.3216 7.21265 12.7482 3.67922C11.9362 3.97027 10.9385 3.59737 10.5226 2.84551C10.1067 2.09365 10.3215 1.05379 11.004 0.527788C12.7923 -0.857692 13.6058 0.743038 13.8206 2.35286C13.9104 3.03651 13.8937 3.72015 13.7977 4.18097C13.0818 7.59768 11.5798 10.8507 9.43954 13.6156C8.67636 14.6024 7.80351 15.5498 6.67626 16.0894C6.43862 16.2031 6.18576 16.3016 5.99382 16.4805C5.61909 16.8276 5.53378 17.4188 5.13467 17.7372C4.90922 17.916 4.60913 17.9479 4.33646 17.8721C3.83529 18.8634 3.93431 19.9351 5.09354 20.828C6.21317 21.6874 8.23612 22.3135 10.4586 22.6697C12.6796 23.0244 15.0986 23.129 17.4856 23.1335C20.2474 23.1411 23.0107 23.0183 25.7054 22.7713C29.3126 22.4408 32.7705 21.8906 36.2848 21.4222C39.799 20.9523 43.4336 20.5642 47.1292 20.5733C54.0678 20.593 60.2174 22.3908 62.5907 25.0496Z" fill="#4F9374"/>
</svg>
